HIERARCHY
ROOT pelvis
{
	OFFSET 0.000000 0.000000 0.000000
	CHANNELS 6 Xposition Yposition Zposition Zrotation Xrotation Yrotation
	JOINT lfemur
	{
		OFFSET 11.446000 0.000000 0.000000
		CHANNELS 3 Zrotation Xrotation Yrotation
		JOINT ltibia
		{
			OFFSET 0.000000 -42.030400 0.000000
			CHANNELS 3 Zrotation Xrotation Yrotation
			JOINT lfoot
			{
				OFFSET 0.000000 -39.930200 0.000000
				CHANNELS 3 Zrotation Xrotation Yrotation
				JOINT ltoes
				{
					OFFSET 0.000000 0.000000 11.775800
					CHANNELS 3 Zrotation Xrotation Yrotation
					End Site
					{
					    OFFSET 0.000000 0.000000 5.000000
					}
				}
			}
		}
	}
	JOINT rfemur
	{
		OFFSET -11.446000 0.000000 0.000000
		CHANNELS 3 Zrotation Xrotation Yrotation
		JOINT rtibia
		{
			OFFSET 0.000000 -42.030400 0.000000
			CHANNELS 3 Zrotation Xrotation Yrotation
			JOINT rfoot
			{
				OFFSET 0.000000 -39.930200 0.000000
				CHANNELS 3 Zrotation Xrotation Yrotation
				JOINT rtoes
				{
					OFFSET 0.000000 0.000000 11.775800
					CHANNELS 3 Zrotation Xrotation Yrotation
					End Site
					{
					    OFFSET 0.000000 0.000000 5.000000
					}
				}
			}
		}
	}
	JOINT thorax
	{
		OFFSET 0.000000 11.255600 -5.000000
		CHANNELS 3 Zrotation Xrotation Yrotation
		JOINT head
		{
			OFFSET 0.000000 43.799300 0.000000
			CHANNELS 3 Zrotation Xrotation Yrotation
			End Site
			{
			    OFFSET 0.000000 5.000000 0.000000
			}
		}
		JOINT lclavicle
		{
			OFFSET 0.000000 39.863000 0.000000
			CHANNELS 3 Zrotation Xrotation Yrotation
			JOINT lhumerus
			{
				OFFSET 17.380600 4.958300 0.000000
				CHANNELS 3 Zrotation Xrotation Yrotation
				JOINT lradius
				{
					OFFSET 0.000000 -27.561300 0.000000
					CHANNELS 3 Zrotation Xrotation Yrotation
					JOINT lhand
					{
						OFFSET 0.000000 -26.933000 0.000000
						CHANNELS 3 Zrotation Xrotation Yrotation
						End Site
						{
						    OFFSET 0.000000 -5.000000 0.000000
						}
					}
				}
			}
		}
		JOINT rclavicle
		{
			OFFSET 0.000000 39.863000 0.000000
			CHANNELS 3 Zrotation Xrotation Yrotation
			JOINT rhumerus
			{
				OFFSET -17.380600 4.958300 0.000000
				CHANNELS 3 Zrotation Xrotation Yrotation
				JOINT rradius
				{
					OFFSET 0.000000 -27.561300 0.000000
					CHANNELS 3 Zrotation Xrotation Yrotation
					JOINT rhand
					{
						OFFSET 0.000000 -26.933000 0.000000
						CHANNELS 3 Zrotation Xrotation Yrotation
						End Site
						{
						    OFFSET 0.000000 -5.000000 0.000000
						}
					}
				}
			}
		}
	}
}
MOTION
Frames: 15
Frame Time: 0.008342
74.095500 86.369500 3.532600 11.463362 -0.347571 -95.505069 -6.883080 -17.469251 -0.149080 -0.000000 27.548727 0.000000 -0.000000 -5.564362 11.073932 -0.000000 -1.332184 -0.000000 6.028917 -21.880536 -4.425364 -0.000000 16.644218 -0.000000 -0.000000 -0.421877 1.556840 -0.000000 -29.547801 -0.000000 -0.396156 12.173012 -0.294325 8.802721 22.820690 15.213881 -18.971011 0.000000 2.853344 40.105437 7.663818 8.176106 -0.000001 -16.950565 -47.010377 2.023150 -5.742821 0.000000 25.106757 0.000000 4.708851 -37.387231 7.515020 -7.532173 0.000001 -30.442346 27.628037 4.446216 -4.940472 0.000000 
74.117400 86.299800 3.543500 11.400564 -0.369592 -95.614801 -6.867786 -17.282576 0.058925 -0.000000 27.299836 0.000000 -0.000000 -5.789616 11.008215 -0.000000 -1.326914 -0.000000 6.033635 -22.148899 -4.223222 -0.000000 17.240811 -0.000000 -0.000000 -0.342999 1.799950 -0.000000 -29.548364 -0.000000 -0.526411 12.334970 -0.337837 8.939024 22.630793 15.219993 -18.873992 0.000000 2.980209 40.685073 8.248511 9.594628 0.000001 -15.680154 -47.893011 1.524925 -5.833757 -0.000000 25.060692 0.000000 4.702500 -37.326597 7.557188 -7.777166 -0.000000 -30.140213 27.615039 4.319851 -4.896838 0.000000 
74.163700 86.223500 3.560400 11.417324 -0.346400 -95.679849 -6.819430 -17.291927 0.172379 -0.000000 27.277211 -0.000000 0.000000 -6.003637 10.760421 -0.000000 -1.318151 0.000000 6.094415 -22.479055 -3.949460 -0.000000 17.759780 0.000000 0.000000 -0.342572 1.686097 0.000000 -29.547620 -0.000000 -0.584529 12.431674 -0.344866 9.069237 22.480790 15.282803 -18.882379 -0.000000 2.993054 41.376810 8.941288 10.712511 0.000001 -14.581024 -48.886157 1.261310 -5.674389 0.000000 25.047290 0.000000 4.618838 -37.312665 7.692729 -7.928031 0.000004 -30.054495 27.592995 4.091747 -4.819406 -0.000000 
74.192100 86.148400 3.580100 11.365190 -0.316868 -95.679578 -6.783657 -17.274970 0.140484 -0.000000 27.429356 -0.000000 -0.000000 -6.257069 10.537645 0.000000 -1.316977 -0.000000 6.070746 -22.751168 -4.017154 -0.000000 18.342204 -0.000000 0.000000 -0.570330 1.787375 0.000000 -29.546831 -0.000000 -0.664700 12.584964 -0.422289 9.208977 22.326049 15.306202 -18.848791 -0.000000 3.043793 41.954232 9.502755 12.360747 0.000000 -13.517966 -49.246526 0.936399 -5.223530 0.000000 25.093628 -0.000000 4.611641 -37.313506 7.825347 -8.119775 -0.000001 -29.922446 27.533334 3.953445 -4.772213 0.000000 
74.205100 86.084300 3.622300 11.305396 -0.386872 -95.717835 -6.892989 -17.170020 -0.110389 -0.000000 27.410566 -0.000000 0.000000 -6.426584 10.425743 -0.000000 -1.319343 -0.000000 5.956371 -23.051961 -4.059049 -0.000000 18.932168 -0.000000 -0.000000 -0.460064 2.089969 0.000000 -29.546926 0.000000 -0.838209 12.775991 -0.439662 9.366314 22.128770 15.216540 -18.844345 0.000000 3.135195 42.577854 9.875225 14.051856 -0.000000 -12.221264 -50.482875 0.734785 -5.210122 0.000000 25.160622 0.000000 4.520844 -37.433538 7.912510 -7.982482 0.000000 -29.858141 27.505963 3.786046 -4.716240 0.000000 
74.276400 86.018800 3.657200 11.377197 -0.405914 -95.606237 -6.959341 -17.343758 -0.453022 -0.000000 27.578711 0.000000 -0.000000 -6.625846 10.396183 -0.000000 -1.309640 -0.000000 5.881920 -23.444225 -4.083340 0.000000 19.441154 0.000000 -0.000000 -0.415938 2.199460 -0.000000 -29.546896 -0.000000 -0.959283 12.888617 -0.511853 9.659742 21.891069 15.166104 -18.778992 -0.000000 3.128071 43.194960 10.355749 15.606618 -0.000000 -11.248000 -51.787539 0.375083 -5.054932 0.000000 25.173003 -0.000000 4.366260 -37.421714 7.933014 -8.198583 0.000000 -29.762239 27.533934 4.167806 -4.845602 -0.000000 
74.303700 85.959700 3.695100 11.358364 -0.478090 -95.542645 -7.121448 -17.314743 -0.901803 -0.000000 27.570536 -0.000000 0.000000 -6.763033 10.416993 0.000000 -1.307053 -0.000000 5.774577 -23.779434 -3.911143 -0.000000 20.086277 0.000000 0.000000 -0.591231 2.152851 0.000000 -29.546759 -0.000000 -1.132739 13.097085 -0.584800 9.886190 21.625745 15.152248 -18.747589 -0.000000 3.154184 43.763918 10.806990 16.873829 0.000000 -10.344100 -52.371527 0.207848 -4.764501 0.000000 25.191012 0.000000 4.348581 -37.324161 8.089742 -8.502840 -0.000001 -29.810398 27.677922 4.301134 -4.891322 -0.000000 
74.381800 85.889600 3.759500 11.489212 -0.567792 -95.383082 -7.352833 -17.549344 -1.444541 -0.000000 27.691304 -0.000000 -0.000000 -6.888656 10.508467 0.000000 -1.298371 0.000000 5.588123 -24.314588 -3.994299 -0.000000 20.754369 -0.000000 0.000000 -0.789824 2.173435 -0.000000 -29.547951 0.000000 -1.288375 13.175357 -0.771172 10.071212 21.315460 14.980587 -18.679752 0.000000 3.499502 44.360401 10.978596 17.294574 0.000000 -9.667685 -52.877491 0.020248 -4.410916 0.000000 25.139626 0.000000 4.431808 -37.198440 8.270214 -8.819704 -0.000001 -29.671099 27.780591 4.505434 -4.960190 -0.000000 
74.459100 85.830600 3.803900 11.567895 -0.608489 -95.193995 -7.509093 -17.729598 -1.836995 0.000000 27.814817 -0.000000 0.000000 -7.023519 10.557634 0.000000 -1.288313 -0.000000 5.479126 -24.769034 -3.877379 -0.000000 21.381235 0.000000 -0.000000 -0.697512 2.130157 -0.000000 -29.545748 -0.000000 -1.385741 13.311823 -0.862727 10.259254 21.028301 14.836547 -18.670385 -0.000000 3.392160 44.932154 11.431479 18.544901 -0.000001 -9.007823 -53.351598 -0.204548 -4.516322 -0.000000 25.060047 0.000000 4.365559 -37.115772 8.465042 -8.731232 0.000000 -29.799496 27.607318 4.717252 -5.033428 0.000000 
74.518500 85.771200 3.851000 11.660966 -0.674086 -94.988463 -7.687173 -17.885707 -2.097173 -0.000000 27.874853 -0.000000 -0.000000 -7.098603 10.538602 -0.000000 -1.282224 -0.000000 5.300657 -25.277124 -4.001527 -0.000000 22.088970 -0.000000 -0.000000 -0.766619 2.113049 0.000000 -29.544980 -0.000000 -1.524361 13.430584 -0.954123 10.443491 20.691679 14.665753 -18.629850 0.000000 3.610334 45.482477 11.698998 18.716555 0.000000 -8.712819 -54.092535 -0.408794 -4.204470 0.000000 25.022689 -0.000000 4.405708 -37.019804 8.750011 -8.846920 -0.000001 -29.813012 27.476262 4.709255 -5.028730 0.000000 
74.564000 85.707500 3.915800 11.743333 -0.748559 -94.695641 -7.955457 -17.980456 -2.536572 -0.000000 27.884644 -0.000000 0.000000 -7.227584 10.682181 -0.000000 -1.279212 0.000000 5.055704 -25.736905 -4.190562 0.000000 22.758250 -0.000000 0.000000 -1.035165 2.001554 -0.000000 -29.545451 0.000000 -1.627048 13.466329 -0.996721 10.718783 20.323816 14.205573 -18.627856 0.000000 3.447415 45.992187 12.119671 19.241565 0.000000 -8.155821 -54.545096 -0.840616 -4.271610 0.000000 24.959190 -0.000000 4.295366 -36.933808 9.003946 -8.889273 -0.000001 -29.793866 26.645677 5.477549 -5.289701 0.000000 
74.617900 85.650900 3.984900 11.852414 -0.894928 -94.494576 -8.253663 -18.016983 -2.915370 -0.000000 27.734230 -0.000000 -0.000000 -7.339690 10.770677 -0.000000 -1.269680 0.000000 4.743574 -26.320508 -4.443891 -0.000000 23.581146 -0.000000 0.000000 -1.175857 2.122504 -0.000000 -29.545857 0.000000 -1.828860 13.514282 -1.015148 11.040008 20.122308 13.882559 -18.552125 0.000000 3.476991 46.444731 12.639078 18.799555 -0.000000 -8.352526 -53.984711 -1.541530 -4.023470 0.000000 24.917971 0.000000 4.270043 -36.849078 9.292047 -8.971784 -0.000001 -29.938444 26.508547 5.906791 -5.436073 0.000000 
74.654300 85.591300 4.060700 11.934302 -1.081931 -94.292308 -8.585282 -17.971741 -3.252845 -0.000000 27.481132 -0.000000 0.000000 -7.384579 10.830576 0.000000 -1.261993 -0.000000 4.394303 -26.895287 -4.631207 0.000000 24.454481 -0.000000 -0.000000 -1.414045 2.071272 0.000000 -29.546469 -0.000000 -2.082959 13.540910 -0.975004 11.268177 19.854954 13.535438 -18.425404 -0.000000 3.376539 46.732983 13.101477 19.285633 0.000000 -8.206284 -54.555663 -1.837640 -4.125381 -0.000000 24.851255 0.000000 4.173873 -36.727175 9.631335 -8.836446 -0.000001 -30.021320 26.536079 5.646908 -5.347678 0.000000 
74.610900 85.559800 4.103600 11.888226 -1.080994 -93.902942 -8.791082 -17.685409 -3.883385 0.000000 27.175829 -0.000000 -0.000000 -7.486036 11.029228 0.000000 -1.252993 -0.000000 4.135966 -27.110931 -4.904660 -0.000000 25.095865 -0.000000 -0.000000 -1.459939 2.032830 -0.000000 -29.546380 -0.000000 -2.152965 13.801491 -1.190763 11.544854 19.523683 13.243984 -18.276796 -0.000000 3.626134 47.049939 13.132308 19.413725 -0.000000 -8.142085 -54.275843 -1.984712 -4.090036 -0.000000 24.865757 0.000000 4.236669 -36.680306 9.963819 -8.834957 -0.000000 -30.086473 26.503985 5.818184 -5.406513 -0.000000 
74.588900 85.508200 4.155000 11.951963 -1.152387 -93.638451 -9.010915 -17.582976 -4.306230 -0.000000 26.942498 -0.000000 0.000000 -7.611702 11.127496 -0.000000 -1.250866 -0.000000 3.895828 -27.533256 -5.040791 -0.000000 25.830714 -0.000000 -0.000000 -1.491443 1.894399 0.000000 -29.544703 -0.000000 -2.269144 13.947706 -1.227618 11.794268 19.131013 12.994613 -18.206099 -0.000000 4.054711 47.423516 13.089793 18.280199 -0.000000 -8.380011 -53.451365 -1.619631 -3.812088 -0.000000 24.836882 -0.000000 4.107423 -36.616074 10.170271 -8.758419 0.000000 -30.104642 26.473305 6.002693 -5.468741 -0.000000 
